<svg width="341" height="36" fill="none" xmlns="http://www.w3.org/2000/svg"><path d="M29.74 36H6.26A6.268 6.268 0 010 29.74V6.26A6.268 6.268 0 016.26 0h23.48A6.268 6.268 0 0136 6.26v23.48A6.268 6.268 0 0129.74 36z" fill="#F48331"/><path d="M29.74 0H18v36h11.74A6.268 6.268 0 0036 29.74V6.26A6.268 6.268 0 0029.74 0z" fill="#F16928"/><path d="M8.609 30.913a3.526 3.526 0 01-3.522-3.522 3.526 3.526 0 013.522-3.521 3.526 3.526 0 013.521 3.521 3.526 3.526 0 01-3.521 3.522z" fill="#E7ECFD"/><path d="M27.39 30.913a3.526 3.526 0 01-3.52-3.522 3.526 3.526 0 013.52-3.521 3.526 3.526 0 013.523 3.521 3.526 3.526 0 01-3.522 3.522z" fill="#DAE0F0"/><path d="M8.609 12.13a3.526 3.526 0 01-3.522-3.52 3.526 3.526 0 013.522-3.522A3.526 3.526 0 0112.13 8.61a3.526 3.526 0 01-3.52 3.52z" fill="#E7ECFD"/><path d="M27.39 12.13a3.526 3.526 0 01-3.52-3.521 3.526 3.526 0 013.52-3.522 3.526 3.526 0 013.523 3.522 3.526 3.526 0 01-3.522 3.521z" fill="#DAE0F0"/><path d="M18 21.522A3.526 3.526 0 0114.48 18 3.526 3.526 0 0118 14.478 3.526 3.526 0 0121.522 18 3.526 3.526 0 0118 21.522z" fill="#E7ECFD"/><path d="M21.522 18A3.526 3.526 0 0018 14.478v7.044A3.526 3.526 0 0021.522 18z" fill="#DAE0F0"/><path d="M51 17.522c0-2.213.392-4.182 1.176-5.907.796-1.735 2.037-3.105 3.723-4.109C57.584 6.502 59.715 6 62.29 6c1.756 0 3.611.19 5.566.57a11.28 11.28 0 011.65.98c.48.331.937.736 1.37 1.214 0 .692-.11 1.613-.333 2.763a24.304 24.304 0 01-.843 3.202c-.328.985-.644 1.623-.948 1.916a5.044 5.044 0 01-.773.263c-.21.039-.538.058-.983.058a11 11 0 01-1.545-.102c-.48-.068-.843-.16-1.089-.278l-.614-4.927c-.831-.195-1.984-.293-3.46-.293-.397 0-.69.005-.877.015-.504 1.345-.785 3.153-.843 5.424-.012.273-.018.688-.018 1.243 0 1.307.082 2.364.246 3.173.152.76.316 1.33.492 1.711.175.38.48.673.913.877.445.205 1.106.307 1.984.307 1.182 0 2.27-.141 3.266-.424 1.007-.292 2.101-.716 3.283-1.272.445.4.785.726 1.019.98.246.253.468.565.667.936.21.37.351.794.421 1.272-.187.321-.684.75-1.492 1.287-.808.536-1.867 1.018-3.178 1.447-1.311.429-2.78.643-4.408.643-3.804 0-6.549-.989-8.234-2.968C51.843 24.038 51 21.207 51 17.522zM72.51 24c.713.194 1.363.35 1.948.467a847.586 847.586 0 003.88-13.466l-4.23-.38c-.27-.615-.405-1.312-.405-2.091 0-.595.082-1.175.246-1.74 1.698-.273 3.653-.468 5.865-.585 2.224-.127 4.132-.19 5.724-.19 1.147 0 2.008.005 2.581.014l1.106.527c1.967 4.493 3.963 10.571 5.988 18.233.023.078.064.234.123.468.07.234.123.458.158.672.035.205.052.4.052.585 0 .82-.35 1.482-1.053 1.989-.983.322-2.171.482-3.564.482a11.47 11.47 0 01-1.985-.175c-.667-.117-1.118-.297-1.352-.541l.211-3.772-.439-1.96c-.76.04-1.656.059-2.686.059-1.1 0-2.13-.03-3.09-.088l-.211.79c-.457 1.696-.831 2.9-1.124 3.611-.281.712-.703 1.238-1.264 1.58-.55.34-1.376.511-2.476.511a10.26 10.26 0 01-2.16-.234 9.84 9.84 0 01-1.966-.6c-.586-.253-1.025-.526-1.317-.818 0-.702.128-1.37.386-2.003.257-.634.609-1.082 1.053-1.346zm12.308-12.868h-.808l-1.264 7.209h3.933l-1.86-7.209zM97.11 25.49c0-.496.11-.998.333-1.505.222-.507.568-.985 1.036-1.433 1.709.624 3.195 1.101 4.46 1.433a15.6 15.6 0 003.933.497c.246 0 .497-.02.755-.059.269-.039.48-.092.632-.16.059-.108.105-.244.14-.41a2.2 2.2 0 00.053-.424c0-.477-.275-.887-.825-1.228-.55-.341-1.276-.683-2.177-1.024l-.615-.248c-1.756-.75-3.166-1.423-4.232-2.018a8.878 8.878 0 01-2.686-2.369c-.726-.984-1.089-2.188-1.089-3.611 0-2.086.697-3.758 2.09-5.016 1.404-1.257 3.634-1.886 6.69-1.886 2.61 0 4.676.132 6.198.395.632.312 1.182.639 1.65.98.48.331.937.736 1.37 1.213 0 .683-.082 1.423-.246 2.223a10.77 10.77 0 01-.65 2.178c-.269.663-.561 1.14-.877 1.433-.27.108-.568.19-.896.249a8.427 8.427 0 01-1.211.073c-.504 0-.914-.03-1.23-.088a3.243 3.243 0 01-.878-.292l-.544-3.041a16.04 16.04 0 00-2.16-.337c-.76-.078-1.276-.112-1.545-.102-.433.166-.731.4-.895.702-.152.292-.229.643-.229 1.053 0 .438.141.818.422 1.14.293.312.644.57 1.053.775.41.205.937.434 1.581.687l.772.322c1.674.73 2.991 1.37 3.951 1.915a7.948 7.948 0 012.406 2.077c.655.828.983 1.832.983 3.012 0 1.374-.433 2.558-1.3 3.553-.866.984-1.978 1.696-3.336 2.134-.737.244-1.551.42-2.44.527-.89.107-1.92.16-3.091.16-.796 0-1.65-.082-2.563-.248a10.352 10.352 0 01-2.67-.877c-.854-.42-1.538-.98-2.053-1.682a2.776 2.776 0 01-.07-.672zm21.948 2.487c0-.42-.024-1.663-.071-3.73-.093-3.02-.14-5.633-.14-7.836 0-2.155.047-3.977.14-5.469l-2.862-.307a11.588 11.588 0 01-.351-1.477 8.305 8.305 0 01-.07-1.374c.234-.244.667-.502 1.299-.775.644-.283 1.37-.517 2.178-.702a10.738 10.738 0 012.37-.278c1.358 0 2.464.254 3.319.76.866.507 1.322 1.239 1.369 2.194.024.565.035 1.048.035 1.447 0 1.843-.093 4.065-.281 6.668a551.063 551.063 0 01-.755 9.197l-.175 2.062c-.925.428-1.979.643-3.161.643a8.778 8.778 0 01-2.844-.453v-.57zM129.681 24c.105.029.327.097.667.204.351.098.737.18 1.159.249V10.679l-2.757-.775c-.269-.526-.404-1.13-.404-1.813 0-.556.106-1.053.316-1.492.843-.185 1.856-.326 3.038-.424a38.695 38.695 0 013.459-.16c1.651 0 3.108.102 4.372.307.585.945 1.452 2.724 2.599 5.337 1.159 2.612 2.552 6.038 4.179 10.279l.298-.03a243.8 243.8 0 01-1.018-8.466c-.328-3.246-.492-5.468-.492-6.667a10.62 10.62 0 012.037-.541c.749-.137 1.44-.205 2.072-.205 1.03 0 2.019.176 2.967.527l-1.703 18.482c.609.73.989 1.588 1.142 2.573-.48.439-1.212.78-2.195 1.023-.972.234-2.008.351-3.108.351-.855 0-1.633-.073-2.336-.219-.69-.146-1.229-.37-1.615-.672a9.584 9.584 0 01.228-2.004 52.826 52.826 0 01-2.546-4.825 349.457 349.457 0 01-3.09-7.018l-.773-1.784-.105.014c.246 1.521.509 3.763.79 6.726.281 2.954.422 5.113.422 6.478 0 1.092-.393 1.915-1.177 2.47-.772.557-1.984.834-3.634.834a6.069 6.069 0 01-1.651-.248 8.204 8.204 0 01-1.598-.629c-.468-.263-.796-.517-.983-.76 0-.702.129-1.37.386-2.003.258-.634.609-1.082 1.054-1.346zm24.898-6.361c0-7.74 3.652-11.61 10.957-11.61 2.891 0 5.144.502 6.76 1.506 1.627.995 2.745 2.34 3.353 4.036.621 1.686.931 3.709.931 6.068 0 3.47-.854 6.229-2.564 8.276-1.709 2.047-4.536 3.07-8.48 3.07-3.969 0-6.79-1.013-8.464-3.04-1.662-2.029-2.493-4.797-2.493-8.306zm11.835 6.682c.959 0 1.51-.044 1.65-.132.293-.428.515-1.174.667-2.237a25.77 25.77 0 00.229-3.597 28.44 28.44 0 00-.246-3.874c-.152-1.2-.369-2.038-.65-2.515-.293-.195-.726-.341-1.299-.439a12.403 12.403 0 00-1.897-.16c-.398 0-.761.019-1.088.058-.316.029-.545.078-.685.146-.34.487-.591 1.194-.755 2.12-.152.916-.228 1.964-.228 3.144 0 1.335.087 2.666.263 3.991.176 1.326.392 2.34.65 3.042.164.146.579.258 1.246.336.668.078 1.382.117 2.143.117zm19.823.789c0-.867.217-1.71.65-2.529.199 0 .509.034.931.102.433.059.883.137 1.352.234a248.968 248.968 0 01-.106-6.477c0-2.096.047-3.885.141-5.366l-2.704-.307a5.829 5.829 0 01-.351-1.185 6.92 6.92 0 01-.123-1.272c0-.312.029-.653.087-1.023 1.393-.439 3.225-.756 5.496-.95a77.232 77.232 0 016.901-.308c2.189 0 3.775.083 4.758.249.632.321 1.183.648 1.651.98.48.321.936.72 1.369 1.198 0 .683-.082 1.424-.245 2.223-.153.79-.369 1.516-.65 2.179-.269.662-.562 1.14-.878 1.432-.269.108-.568.19-.896.25a8.422 8.422 0 01-1.211.072c-.421 0-.784-.029-1.089-.088a4.26 4.26 0 01-.843-.292l-.597-3.188a20.516 20.516 0 00-2.633-.146 8.15 8.15 0 00-.843.044c-.047 1.414-.287 3.339-.72 5.776 2.599-.36 4.817-.624 6.655-.79.468.595.702 1.321.702 2.179 0 .565-.094 1.111-.281 1.637-.187.527-.392.892-.614 1.097-.492.068-1.077.102-1.756.102a20.67 20.67 0 01-2.739-.19 17.413 17.413 0 01-2.634-.555l-.229 1.243c-.14.692-.263 1.374-.368 2.047l11.114-.541c.176.136.322.409.439.818.129.41.194.858.194 1.346 0 .78-.188 1.462-.562 2.047a3.842 3.842 0 01-1.493 1.36 4.25 4.25 0 01-1.966.467c-.703 0-1.663-.126-2.88-.38a32.457 32.457 0 01-3.529-.98c-1.136-.39-1.973-.765-2.511-1.125-.539.78-1.13 1.374-1.774 1.784-.632.409-1.451.643-2.458.701a2.654 2.654 0 01-1.387-.643 3.78 3.78 0 01-1.001-1.389 4.567 4.567 0 01-.369-1.842zM208.203 24c.106.029.328.097.668.204.351.098.737.18 1.158.249V10.679l-2.756-.775c-.27-.526-.404-1.13-.404-1.813a3.4 3.4 0 01.316-1.492c.843-.185 1.855-.326 3.038-.424a38.695 38.695 0 013.459-.16c1.65 0 3.108.102 4.372.307.585.945 1.451 2.724 2.598 5.337 1.159 2.612 2.552 6.038 4.179 10.279l.299-.03c-.34-2.407-.679-5.23-1.018-8.466-.328-3.246-.492-5.468-.492-6.667a10.62 10.62 0 012.037-.541c.749-.137 1.44-.205 2.072-.205 1.03 0 2.019.176 2.967.527l-1.703 18.482c.609.73.989 1.588 1.141 2.573-.48.439-1.211.78-2.195 1.023a13.24 13.24 0 01-3.108.351c-.854 0-1.633-.073-2.335-.219-.691-.146-1.229-.37-1.615-.672a9.518 9.518 0 01.228-2.004 52.579 52.579 0 01-2.546-4.825 338.264 338.264 0 01-3.09-7.018l-.773-1.784-.105.014c.246 1.521.509 3.763.79 6.726.281 2.954.421 5.113.421 6.478 0 1.092-.392 1.915-1.176 2.47-.773.557-1.984.834-3.635.834a6.067 6.067 0 01-1.65-.248 8.179 8.179 0 01-1.598-.629c-.468-.263-.796-.517-.983-.76 0-.702.128-1.37.386-2.003.257-.634.608-1.082 1.053-1.346zm32.361.994c0-.887.217-1.74.65-2.56.199 0 .509.035.93.103.422.059.867.137 1.335.234a218.278 218.278 0 01-.088-6.141c0-2.154.047-3.992.14-5.512h-.017l.017-.176-2.862-.307a11.588 11.588 0 01-.351-1.477 8.305 8.305 0 01-.07-1.374c.375-.351.925-.658 1.651-.921a12.614 12.614 0 012.37-.614c.854-.147 1.633-.22 2.335-.22 1.346 0 2.394.224 3.143.673.761.439 1.194 1.14 1.3 2.105.035.38.052.795.052 1.243 0 1.482-.158 3.236-.474 5.264a195.718 195.718 0 01-1.264 7.106l-.14.76 4.477.205 1.826-4.854c.55-.02 1.177.015 1.879.102.714.088 1.328.21 1.844.366.21.458.403 1.189.579 2.193.187.994.281 1.97.281 2.924 0 1.59-.281 2.705-.843 3.349-.281.312-.673.585-1.176.819a7.54 7.54 0 01-1.563.511 6.426 6.426 0 01-1.457.19c-.691 0-1.499-.122-2.424-.365a21.175 21.175 0 01-2.721-.95c-.89-.39-1.621-.78-2.195-1.17-.527.76-1.135 1.35-1.826 1.769-.691.42-1.551.658-2.581.716-.504-.068-.966-.287-1.387-.658-.422-.37-.755-.848-1.001-1.433a4.853 4.853 0 01-.369-1.9zm22.862 2.983c0-.42-.024-1.663-.071-3.73-.093-3.02-.14-5.633-.14-7.836 0-2.155.047-3.977.14-5.469l-2.862-.307a11.588 11.588 0 01-.351-1.477 8.305 8.305 0 01-.07-1.374c.234-.244.667-.502 1.299-.775a12.22 12.22 0 012.177-.702c.82-.185 1.61-.278 2.371-.278 1.358 0 2.464.254 3.318.76.867.507 1.323 1.239 1.37 2.194.023.565.035 1.048.035 1.447 0 1.843-.093 4.065-.281 6.668a551.063 551.063 0 01-.755 9.197l-.175 2.062c-.925.428-1.979.643-3.161.643a8.778 8.778 0 01-2.844-.453v-.57zm10.412-10.455c0-2.223.386-4.192 1.159-5.907.772-1.726 1.99-3.085 3.652-4.08 1.674-1.004 3.798-1.506 6.374-1.506.913 0 1.902.049 2.967.146 1.065.088 2.107.23 3.126.424.632.312 1.182.639 1.65.98.48.332.937.736 1.37 1.214 0 .692-.111 1.608-.334 2.749a23.552 23.552 0 01-.843 3.187c-.327.985-.644 1.623-.948 1.916a5.05 5.05 0 01-.772.263c-.211.039-.539.058-.984.058-.55 0-1.065-.034-1.545-.102-.48-.068-.843-.16-1.089-.278l-.614-4.927c-.831-.195-2.16-.293-3.986-.293-.398 0-.691.005-.878.015-.503 1.345-.784 3.153-.843 5.424v.57c0 1.453.112 2.735.334 3.846.152.731.281 1.292.386 1.682.117.39.258.692.422.906a.822.822 0 00.649.307c.913 0 1.727-.263 2.441-.79a7.172 7.172 0 001.861-2.017l-.474-2.09a17.247 17.247 0 014.548-.659c.726 0 1.358.068 1.896.205.539.136.902.404 1.089.804-.223 1.443-.58 3.212-1.071 5.308-.492 2.096-.861 3.367-1.106 3.816a8.638 8.638 0 01-2.178.292c-.363 0-.749-.024-1.159-.073a5.763 5.763 0 01-1.053-.22c0-.32-.035-1.086-.106-2.295l-.052-1.082-.474-.117c-.808 1.131-1.715 2.047-2.722 2.75-1.007.691-2.101 1.037-3.283 1.037-1.522 0-2.839-.468-3.951-1.403-1.112-.936-1.967-2.267-2.564-3.992-.597-1.735-.895-3.758-.895-6.068zM296.699 24c.106.029.328.097.668.204.351.098.737.18 1.158.249V10.679l-2.756-.775c-.27-.526-.404-1.13-.404-1.813a3.4 3.4 0 01.316-1.492c.843-.185 1.855-.326 3.038-.424a38.695 38.695 0 013.459-.16c1.65 0 3.108.102 4.372.307.585.945 1.451 2.724 2.598 5.337 1.159 2.612 2.552 6.038 4.179 10.279l.299-.03c-.34-2.407-.679-5.23-1.018-8.466-.328-3.246-.492-5.468-.492-6.667a10.62 10.62 0 012.037-.541c.749-.137 1.44-.205 2.072-.205 1.03 0 2.019.176 2.967.527l-1.703 18.482c.609.73.989 1.588 1.141 2.573-.48.439-1.211.78-2.195 1.023a13.24 13.24 0 01-3.108.351c-.854 0-1.633-.073-2.335-.219-.691-.146-1.229-.37-1.615-.672a9.518 9.518 0 01.228-2.004 52.579 52.579 0 01-2.546-4.825 338.264 338.264 0 01-3.09-7.018l-.773-1.784-.105.014c.246 1.521.509 3.763.79 6.726.281 2.954.421 5.113.421 6.478 0 1.092-.392 1.915-1.176 2.47-.773.557-1.984.834-3.635.834a6.067 6.067 0 01-1.65-.248 8.179 8.179 0 01-1.598-.629c-.468-.263-.796-.517-.983-.76 0-.702.128-1.37.386-2.003.257-.634.609-1.082 1.053-1.346zm24.249 1.11c0-.867.216-1.71.65-2.529.199 0 .509.034.93.102.433.059.884.137 1.352.234a252.78 252.78 0 01-.105-6.477c0-2.096.047-3.885.14-5.366l-2.704-.307a5.893 5.893 0 01-.351-1.185 6.92 6.92 0 01-.123-1.272c0-.312.03-.653.088-1.023 1.393-.439 3.225-.756 5.496-.95a77.226 77.226 0 016.9-.308c2.189 0 3.776.083 4.759.249.632.321 1.182.648 1.65.98.48.321.937.72 1.37 1.198 0 .683-.082 1.424-.246 2.223-.152.79-.369 1.516-.649 2.179-.27.662-.562 1.14-.878 1.432-.27.108-.568.19-.896.25a8.442 8.442 0 01-1.211.072c-.422 0-.785-.029-1.089-.088a4.216 4.216 0 01-.843-.292l-.597-3.188c-.737-.097-1.615-.146-2.634-.146a8.15 8.15 0 00-.843.044c-.046 1.414-.286 3.339-.719 5.776 2.598-.36 4.816-.624 6.654-.79.469.595.703 1.321.703 2.179 0 .565-.094 1.111-.281 1.637-.188.527-.392.892-.615 1.097-.491.068-1.077.102-1.756.102a20.67 20.67 0 01-2.739-.19 17.466 17.466 0 01-2.634-.555l-.228 1.243a48.07 48.07 0 00-.369 2.047l11.115-.541c.176.136.322.409.439.818.129.41.193.858.193 1.346 0 .78-.187 1.462-.562 2.047a3.84 3.84 0 01-1.492 1.36 4.251 4.251 0 01-1.967.467c-.702 0-1.662-.126-2.879-.38a32.474 32.474 0 01-3.53-.98c-1.135-.39-1.972-.765-2.511-1.125-.538.78-1.129 1.374-1.773 1.784-.632.409-1.452.643-2.458.701a2.65 2.65 0 01-1.387-.643 3.758 3.758 0 01-1.001-1.389 4.567 4.567 0 01-.369-1.842z" fill="#fff"/></svg>