<svg width="38" height="38" fill="none" xmlns="http://www.w3.org/2000/svg"><path d="M11.239 16.428L2.94 32.063l7.536-.696L14.124 38l8.298-15.635-11.183-5.936z" fill="#761179"/><path d="M12.19 33.446c.232-.5-.011-1.098-.499-1.357l-.477-.254a1.022 1.022 0 01.982-1.79l1.35.716c.417.221.94.06 1.155-.359l.033-.064a.805.805 0 00-.31-1.136l-4.037-2.142c-.492-.261-.733-.856-.504-1.358a1.024 1.024 0 011.407-.47l3.745 1.988c.417.22.94.06 1.16-.357l.022-.055.006-.011a.897.897 0 00-.37-1.22l-2.1-1.115c-.492-.261-.733-.857-.5-1.364.25-.527.892-.743 1.406-.47l2.32 1.232c.434.23.952.038 1.177-.4l.006-.011.006-.012c.236-.431.105-.969-.33-1.198l-2.503-1.328c-.486-.258-.727-.853-.498-1.354a1.024 1.024 0 011.407-.47l6.176 3.277-8.299 15.635-2.287-4.157a.972.972 0 00.355-.396z" fill="#9C2AA0"/><path d="M26.762 16.428l8.299 15.635-7.536-.696L23.878 38l-8.299-15.635 11.183-5.936z" fill="#9C2AA0"/><path d="M25.812 33.446c-.233-.5.01-1.098.497-1.357l.478-.254a1.022 1.022 0 00-.982-1.79l-1.35.716a.852.852 0 01-1.155-.359l-.033-.064a.805.805 0 01.31-1.136l4.038-2.143c.492-.261.733-.856.504-1.358a1.024 1.024 0 00-1.407-.47l-3.745 1.987a.861.861 0 01-1.16-.356l-.022-.055-.006-.012a.897.897 0 01.37-1.22l2.1-1.114c.492-.261.733-.857.5-1.364a1.028 1.028 0 00-1.406-.47L21.02 23.86c-.433.23-.951.038-1.176-.4-.004-.005-.004-.005-.006-.011l-.006-.012c-.236-.431-.106-.968.33-1.198l2.503-1.328c.485-.258.727-.853.497-1.354a1.024 1.024 0 00-1.406-.47l-6.176 3.277L23.88 38l2.287-4.157a.989.989 0 01-.354-.397z" fill="#761179"/><path d="M19 27.732c7.659 0 13.866-6.208 13.866-13.866C32.866 6.208 26.66 0 19.001 0S5.135 6.208 5.135 13.866c0 7.658 6.208 13.866 13.866 13.866z" fill="#FFCC5B"/><path d="M20.88 12.275h-8.787c-.683 0-1.244-.56-1.244-1.244l.01-.086v-.018a1.299 1.299 0 011.3-1.31h6.09c.807 0 1.52-.598 1.568-1.406a1.489 1.489 0 00-1.482-1.558h-6.451c-.712 0-1.244-.597-1.234-1.31v-.038c-.01-.712.521-1.31 1.234-1.31h6.75c.798 0 1.51-.598 1.558-1.397a1.484 1.484 0 00-1.482-1.557h-4.943c-5.04 2.078-8.593 7.034-8.593 12.825 0 5.79 3.552 10.746 8.594 12.821h6.277c.797 0 1.51-.597 1.557-1.396a1.483 1.483 0 00-1.481-1.556l-7.14-.001a1.478 1.478 0 01-1.476-1.558c.042-.798.76-1.398 1.559-1.398h2.768A1.48 1.48 0 0017.27 19.3c0-.816-.665-1.481-1.482-1.481h-4.196c-.683 0-1.244-.56-1.235-1.244v-.105a1.168 1.168 0 011.168-1.244h9.268c.807 0 1.52-.597 1.567-1.396a1.484 1.484 0 00-1.481-1.556z" fill="#FDBC4B"/><path d="M19 23.762c-5.458 0-9.897-4.44-9.897-9.897S13.543 3.968 19 3.968c5.458 0 9.898 4.441 9.898 9.898s-4.44 9.896-9.898 9.896z" fill="#FFDB70"/><path opacity=".2" d="M28.898 13.866c0-5.266-4.137-9.572-9.33-9.87h-.922c-.608 0-1.151.457-1.188 1.065a1.132 1.132 0 001.13 1.188l5.446.001c.643 0 1.16.537 1.125 1.188-.032.61-.579 1.067-1.19 1.067h-2.11a1.13 1.13 0 00-1.098 1.127c0 .622.507 1.13 1.13 1.13h3.2a.94.94 0 01.941.947v.079a.89.89 0 01-.891.948h-7.068c-.615 0-1.158.456-1.195 1.064a1.132 1.132 0 001.13 1.188h6.7c.522 0 .949.428.949.949l-.008.065v.014a.99.99 0 01-.992 1h-4.645c-.615 0-1.158.456-1.195 1.071a1.136 1.136 0 001.13 1.188h4.92c.543 0 .948.456.94 1v.028c.008.543-.397.999-.94.999h-5.148c-.609 0-1.152.456-1.188 1.064a1.131 1.131 0 001.13 1.188h1.357c4.495-.936 7.88-4.924 7.88-9.688z" fill="#fff"/><path d="M25.91 11.674h-4.814l-1.489-4.579c-.19-.588-1.024-.588-1.215 0l-1.487 4.579H12.09c-.618 0-.876.792-.375 1.156l3.895 2.83-1.488 4.578c-.191.589.482 1.078.984.715L19 18.123l3.895 2.83c.501.363 1.175-.126.983-.715l-1.487-4.578 3.894-2.83c.5-.364.244-1.156-.375-1.156z" fill="#EC9922"/></svg>