<svg width="30" height="30" fill="none" xmlns="http://www.w3.org/2000/svg"><g clip-path="url(#clip0)" fill="#5D4485"><path d="M4.412 15.92l-4.405.016a14.913 14.913 0 001.582 5.848l3.814-2.219a10.548 10.548 0 01-.991-3.646zm10.589-9.79c-4.89 0-8.87 3.978-8.87 8.869 0 4.89 3.98 8.87 8.87 8.87 4.89 0 8.87-3.98 8.87-8.87 0-4.89-3.98-8.87-8.87-8.87zm4.132 11.268c-.559.912-1.428 1.419-2.447 1.427a3.084 3.084 0 01-.804-.1v1.028H14.12v-1.03a3.08 3.08 0 01-.782.102h-.023c-1.019-.008-1.888-.515-2.446-1.427-.568-.928-.586-2.069-.049-3.051.383-.7.963-1.246 1.475-1.728l.249-.236c.316-.303.632-.593.939-.873.299-.273.607-.555.908-.843l.61-.586.61.586c.3.288.608.57.907.843.306.28.623.57.939.873.081.079.165.157.249.236.512.482 1.092 1.027 1.474 1.727.538.983.52 2.124-.048 3.052zm.422 7.204a10.549 10.549 0 01-3.647.988l.011 4.404a14.912 14.912 0 005.85-1.574l-2.214-3.818z"/><path d="M17.636 15.191c-.248-.454-.7-.879-1.136-1.29-.088-.083-.176-.165-.262-.248-.3-.288-.609-.57-.908-.844l-.329-.301-.33.302a50.955 50.955 0 00-1.169 1.091c-.437.411-.888.836-1.136 1.29-.239.436-.236.893.005 1.287.243.397.547.583.958.586.263.002.524-.075.758-.223l.914-.572.912.57c.236.15.497.227.76.225.41-.003.715-.19.958-.585.242-.395.244-.852.005-1.288zm-3.488 10.403a10.545 10.545 0 01-3.652-.969l-2.195 3.829a14.918 14.918 0 005.858 1.545l-.011-4.405zM15.882.001v4.405a10.55 10.55 0 013.65.978l2.204-3.823A14.915 14.915 0 0015.882 0zM1.538 8.315A14.921 14.921 0 000 14.175l4.404-.016c.102-1.297.438-2.528.965-3.653l-3.831-2.19zm5.141-5.83a15.184 15.184 0 00-4.265 4.304l3.83 2.19a10.718 10.718 0 012.66-2.682L6.678 2.485zm-.388 18.6l-3.814 2.22a15.17 15.17 0 004.298 4.27l2.195-3.828a10.719 10.719 0 01-2.679-2.662zm17.45-.044a10.719 10.719 0 01-2.665 2.675l2.215 3.818c.83-.552 1.612-1.19 2.333-1.912a15.16 15.16 0 001.943-2.381l-3.826-2.2zM8.198 1.595l2.224 3.812a10.549 10.549 0 013.698-1.001V0c-2.088.12-4.095.665-5.922 1.594zM28.43 8.247l-3.82 2.21c.533 1.123.875 2.353.983 3.648l4.404-.005a14.917 14.917 0 00-1.566-5.853zm-2.834 7.619a10.549 10.549 0 01-.974 3.65l3.826 2.2A14.92 14.92 0 0030 15.86l-4.404.006zm.029-11.491a15.172 15.172 0 00-2.365-1.932l-2.205 3.823a10.719 10.719 0 012.672 2.669l3.82-2.21a15.176 15.176 0 00-1.922-2.35z"/></g><defs><clipPath id="clip0"><path fill="#fff" d="M0 0h30v30H0z"/></clipPath></defs></svg>